HIERARCHY
ROOT Hips
{
	OFFSET 13.639419 -0.077229 3.268148
	CHANNELS 6 Xposition Yposition Zposition Zrotation Yrotation Xrotation 
	JOINT Spine
	{
		OFFSET 0.000018 8.340398 -2.713950
		CHANNELS 3 Zrotation Yrotation Xrotation
		JOINT Spine1
		{
			OFFSET -0.000036 11.909915 -2.100023
			CHANNELS 3 Zrotation Yrotation Xrotation
			JOINT Spine2
			{
				OFFSET -0.000035 12.047725 -1.053960
				CHANNELS 3 Zrotation Yrotation Xrotation
				JOINT Spine3
				{
					OFFSET 0.000009 12.093726 0.000010
					CHANNELS 3 Zrotation Yrotation Xrotation
					JOINT Neck
					{
						OFFSET -0.000055 15.549055 1.554907
						CHANNELS 3 Zrotation Yrotation Xrotation
						JOINT Neck1
						{
							OFFSET 0.000007 4.687375 0.410093
							CHANNELS 3 Zrotation Yrotation Xrotation
							JOINT Head
							{
								OFFSET 0.000008 4.633826 0.817103
								CHANNELS 3 Zrotation Yrotation Xrotation
								JOINT HeadEnd
								{
									OFFSET -0.000010 9.727736 0.000025
									CHANNELS 3 Zrotation Yrotation Xrotation
									End Site
									{
										OFFSET 0.000000 0.000000 0.000000
									}
								}
							}
						}
					}
					JOINT RightShoulder
					{
						OFFSET 0.000001 11.106527 6.072583
						CHANNELS 3 Zrotation Yrotation Xrotation
						JOINT RightArm
						{
							OFFSET -19.427911 0.000019 -0.000016
							CHANNELS 3 Zrotation Yrotation Xrotation
							JOINT RightForeArm
							{
								OFFSET -29.350702 0.000007 -0.000043
								CHANNELS 3 Zrotation Yrotation Xrotation
								JOINT RightHand
								{
									OFFSET -27.018058 -0.000011 -0.000007
									CHANNELS 3 Zrotation Yrotation Xrotation
									JOINT RightHandMiddle1
									{
										OFFSET -9.244013 0.000027 -0.000043
										CHANNELS 3 Zrotation Yrotation Xrotation
										JOINT RightHandMiddle2
										{
											OFFSET -4.869982 0.000003 0.000042
											CHANNELS 3 Zrotation Yrotation Xrotation
											JOINT RightHandMiddle3
											{
												OFFSET -3.169095 -0.000022 0.000026
												CHANNELS 3 Zrotation Yrotation Xrotation
												JOINT RightHandMiddle4
												{
													OFFSET -1.888419 -0.000041 -0.000000
													CHANNELS 3 Zrotation Yrotation Xrotation
													End Site
													{
														OFFSET 0.000000 0.000000 0.000000
													}
												}
											}
										}
									}
									JOINT RightHandRing
									{
										OFFSET -0.249991 -0.250044 -0.956478
										CHANNELS 3 Zrotation Yrotation Xrotation
										JOINT RightHandRing1
										{
											OFFSET -8.140215 0.000044 -0.734573
											CHANNELS 3 Zrotation Yrotation Xrotation
											JOINT RightHandRing2
											{
												OFFSET -4.501569 0.000016 -0.406282
												CHANNELS 3 Zrotation Yrotation Xrotation
												JOINT RightHandRing3
												{
													OFFSET -3.068876 -0.000040 -0.276969
													CHANNELS 3 Zrotation Yrotation Xrotation
													JOINT RightHandRing4
													{
														OFFSET -1.869926 0.000024 -0.168733
														CHANNELS 3 Zrotation Yrotation Xrotation
														End Site
														{
															OFFSET 0.000000 0.000000 0.000000
														}
													}
												}
											}
										}
										JOINT RightHandPinky
										{
											OFFSET -0.163008 -0.249979 -0.975115
											CHANNELS 3 Zrotation Yrotation Xrotation
											JOINT RightHandPinky1
											{
												OFFSET -6.681498 -0.000004 -1.494112
												CHANNELS 3 Zrotation Yrotation Xrotation
												JOINT RightHandPinky2
												{
													OFFSET -3.580941 -0.000026 -0.800764
													CHANNELS 3 Zrotation Yrotation Xrotation
													JOINT RightHandPinky3
													{
														OFFSET -2.276552 0.000006 -0.509108
														CHANNELS 3 Zrotation Yrotation Xrotation
														JOINT RightHandPinky4
														{
															OFFSET -1.690364 -0.000020 -0.378014
															CHANNELS 3 Zrotation Yrotation Xrotation
															End Site
															{
																OFFSET 0.000000 0.000000 0.000000
															}
														}
													}
												}
											}
										}
									}
									JOINT RightHandIndex
									{
										OFFSET -0.250008 -0.250023 0.956504
										CHANNELS 3 Zrotation Yrotation Xrotation
										JOINT RightHandIndex1
										{
											OFFSET -8.934100 0.000002 0.806251
											CHANNELS 3 Zrotation Yrotation Xrotation
											JOINT RightHandIndex2
											{
												OFFSET -4.694697 -0.000007 0.423689
												CHANNELS 3 Zrotation Yrotation Xrotation
												JOINT RightHandIndex3
												{
													OFFSET -2.811754 -0.000019 0.253758
													CHANNELS 3 Zrotation Yrotation Xrotation
													JOINT RightHandIndex4
													{
														OFFSET -1.709952 -0.000026 0.154300
														CHANNELS 3 Zrotation Yrotation Xrotation
														End Site
														{
															OFFSET 0.000000 0.000000 0.000000
														}
													}
												}
											}
										}
										JOINT RightHandThumb1
										{
											OFFSET -0.163007 -0.749968 0.975109
											CHANNELS 3 Zrotation Yrotation Xrotation
											JOINT RightHandThumb2
											{
												OFFSET -5.411674 0.835537 2.244686
												CHANNELS 3 Zrotation Yrotation Xrotation
												JOINT RightHandThumb3
												{
													OFFSET -3.567210 0.550756 1.479596
													CHANNELS 3 Zrotation Yrotation Xrotation
													JOINT RightHandThumb4
													{
														OFFSET -2.150557 0.332028 0.892020
														CHANNELS 3 Zrotation Yrotation Xrotation
														End Site
														{
															OFFSET 0.000000 0.000000 0.000000
														}
													}
												}
											}
										}
									}
								}
							}
						}
					}
					JOINT LeftShoulder
					{
						OFFSET 0.000004 11.106495 6.072660
						CHANNELS 3 Zrotation Yrotation Xrotation
						JOINT LeftArm
						{
							OFFSET 19.427929 0.000015 0.000008
							CHANNELS 3 Zrotation Yrotation Xrotation
							JOINT LeftForeArm
							{
								OFFSET 29.350784 -0.000018 -0.000001
								CHANNELS 3 Zrotation Yrotation Xrotation
								JOINT LeftHand
								{
									OFFSET 27.018107 0.000050 -0.000026
									CHANNELS 3 Zrotation Yrotation Xrotation
									JOINT LeftHandMiddle1
									{
										OFFSET 9.402670 0.000032 0.000011
										CHANNELS 3 Zrotation Yrotation Xrotation
										JOINT LeftHandMiddle2
										{
											OFFSET 4.950119 0.000038 -0.000002
											CHANNELS 3 Zrotation Yrotation Xrotation
											JOINT LeftHandMiddle3
											{
												OFFSET 3.211905 0.000021 0.000016
												CHANNELS 3 Zrotation Yrotation Xrotation
												JOINT LeftHandMiddle4
												{
													OFFSET 1.927627 -0.000011 -0.000005
													CHANNELS 3 Zrotation Yrotation Xrotation
													End Site
													{
														OFFSET 0.000000 0.000000 0.000000
													}
												}
											}
										}
									}
									JOINT LeftHandRing
									{
										OFFSET 0.250039 -0.250023 -0.906139
										CHANNELS 3 Zrotation Yrotation Xrotation
										JOINT LeftHandRing1
										{
											OFFSET 8.286060 -0.000003 -0.747770
											CHANNELS 3 Zrotation Yrotation Xrotation
											JOINT LeftHandRing2
											{
												OFFSET 4.585473 0.000020 -0.413806
												CHANNELS 3 Zrotation Yrotation Xrotation
												JOINT LeftHandRing3
												{
													OFFSET 3.124434 0.000003 -0.281943
													CHANNELS 3 Zrotation Yrotation Xrotation
													JOINT LeftHandRing4
													{
														OFFSET 1.908765 -0.000022 -0.172253
														CHANNELS 3 Zrotation Yrotation Xrotation
														End Site
														{
															OFFSET 0.000000 0.000000 0.000000
														}
													}
												}
											}
										}
										JOINT LeftHandPinky
										{
											OFFSET 0.167554 -0.249985 -0.924929
											CHANNELS 3 Zrotation Yrotation Xrotation
											JOINT LeftHandPinky1
											{
												OFFSET 6.823479 0.000027 -1.525852
												CHANNELS 3 Zrotation Yrotation Xrotation
												JOINT LeftHandPinky2
												{
													OFFSET 3.642816 -0.000010 -0.814618
													CHANNELS 3 Zrotation Yrotation Xrotation
													JOINT LeftHandPinky3
													{
														OFFSET 2.333093 0.000025 -0.521736
														CHANNELS 3 Zrotation Yrotation Xrotation
														JOINT LeftHandPinky4
														{
															OFFSET 1.725447 0.000013 -0.385887
															CHANNELS 3 Zrotation Yrotation Xrotation
															End Site
															{
																OFFSET 0.000000 0.000000 0.000000
															}
														}
													}
												}
											}
										}
									}
									JOINT LeftHandIndex
									{
										OFFSET 0.250019 -0.250019 0.906188
										CHANNELS 3 Zrotation Yrotation Xrotation
										JOINT LeftHandIndex1
										{
											OFFSET 9.087968 0.000015 0.820121
											CHANNELS 3 Zrotation Yrotation Xrotation
											JOINT LeftHandIndex2
											{
												OFFSET 4.776591 -0.000017 0.431060
												CHANNELS 3 Zrotation Yrotation Xrotation
												JOINT LeftHandIndex3
												{
													OFFSET 2.865118 -0.000025 0.258591
													CHANNELS 3 Zrotation Yrotation Xrotation
													JOINT LeftHandIndex4
													{
														OFFSET 1.745470 -0.000021 0.157496
														CHANNELS 3 Zrotation Yrotation Xrotation
														End Site
														{
															OFFSET 0.000000 0.000000 0.000000
														}
													}
												}
											}
										}
										JOINT LeftHandThumb1
										{
											OFFSET 0.167565 -0.750025 0.924931
											CHANNELS 3 Zrotation Yrotation Xrotation
											JOINT LeftHandThumb2
											{
												OFFSET 5.551458 0.857100 2.302677
												CHANNELS 3 Zrotation Yrotation Xrotation
												JOINT LeftHandThumb3
												{
													OFFSET 3.625659 0.559807 1.503877
													CHANNELS 3 Zrotation Yrotation Xrotation
													JOINT LeftHandThumb4
													{
														OFFSET 2.195243 0.338942 0.910580
														CHANNELS 3 Zrotation Yrotation Xrotation
														End Site
														{
															OFFSET 0.000000 0.000000 0.000000
														}
													}
												}
											}
										}
									}
								}
							}
						}
					}
				}
			}
		}
	}
	JOINT RightUpLeg
	{
		OFFSET -8.786515 -0.000010 0.000015
		CHANNELS 3 Zrotation Yrotation Xrotation
		JOINT RightLeg
		{
			OFFSET 0.000032 -42.170438 -0.000001
			CHANNELS 3 Zrotation Yrotation Xrotation
			JOINT RightFoot
			{
				OFFSET -0.000019 -45.949167 -0.000050
				CHANNELS 3 Zrotation Yrotation Xrotation
				JOINT RightForeFoot
				{
					OFFSET -0.000021 -4.685743 0.000040
					CHANNELS 3 Zrotation Yrotation Xrotation
					JOINT RightToeBase
					{
						OFFSET 0.000004 -0.000010 18.351036
						CHANNELS 3 Zrotation Yrotation Xrotation
						JOINT RightToeBaseEnd
						{
							OFFSET -0.000033 0.000033 6.416950
							CHANNELS 3 Zrotation Yrotation Xrotation
							End Site
							{
								OFFSET 0.000000 0.000000 0.000000
							}
						}
					}
				}
			}
		}
	}
	JOINT LeftUpLeg
	{
		OFFSET 8.786527 0.000027 -0.000004
		CHANNELS 3 Zrotation Yrotation Xrotation
		JOINT LeftLeg
		{
			OFFSET -0.000056 -42.170397 0.000011
			CHANNELS 3 Zrotation Yrotation Xrotation
			JOINT LeftFoot
			{
				OFFSET 0.000035 -45.949115 -0.000011
				CHANNELS 3 Zrotation Yrotation Xrotation
				JOINT LeftForeFoot
				{
					OFFSET 0.000010 -4.685774 0.000019
					CHANNELS 3 Zrotation Yrotation Xrotation
					JOINT LeftToeBase
					{
						OFFSET -0.000085 0.000010 18.351119
						CHANNELS 3 Zrotation Yrotation Xrotation
						JOINT LeftToeBaseEnd
						{
							OFFSET -0.000006 0.000000 7.522011
							CHANNELS 3 Zrotation Yrotation Xrotation
							End Site
							{
								OFFSET 0.000000 0.000000 0.000000
							}
						}
					}
				}
			}
		}
	}
}
MOTION
Frames: 4
Frame Time: 0.066667
8.160130 -0.402996 -2.231379 12.693201 14.098261 -11.677518 -7.242501 2.724985 12.601797 -0.071698 0.192100 -0.503688 -0.759781 2.271527 1.271601 0.251556 1.003082 7.816896 7.463317 -1.332501 14.361418 -15.132802 3.697634 2.984217 -3.640744 0.770560 -0.530734 -0.004017 0.000910 -0.001839 6.965989 -10.895434 -1.269619 67.021629 -1.438873 32.933556 -179.966232 87.994057 155.611450 4.529707 -20.141628 -0.062059 31.998720 -5.926431 0.000581 32.796967 0.000465 0.000307 20.695417 0.002919 -0.000094 0.000222 -0.000019 0.001069 -0.413260 -2.154700 -10.700111 42.059845 -5.348928 -3.455125 44.411747 1.547909 -3.621662 19.569326 0.302699 -1.731693 -0.001259 0.000714 -0.000806 -2.213554 -4.240195 -3.574167 33.919483 2.993142 -7.196781 46.796562 4.245636 -9.377544 30.448383 1.829522 -6.501708 0.000259 -0.000432 -0.001233 -0.867582 7.384941 -3.376842 19.363394 -11.631753 1.790250 23.657057 -0.502788 2.070657 18.902306 -0.293962 1.675424 0.002018 0.000547 -0.000425 7.687534 5.968490 48.237991 1.800464 -3.121092 0.185655 10.226341 -6.857511 2.638325 -0.001842 -0.000236 -0.001065 -8.757109 8.371786 -1.230234 -67.028168 2.162925 0.741031 -0.002160 -36.656181 1.695687 -20.159330 7.641479 0.032316 -24.628736 1.510095 0.000498 -15.455276 0.001204 0.001941 -13.121692 -0.000161 -0.002698 0.001665 -0.000114 -0.000303 -1.110380 0.671953 -12.775190 -19.225376 2.041080 -1.699747 -22.178289 -0.388480 -1.954260 -4.816374 -0.020158 -0.434362 -0.000401 -0.000788 -0.000844 -0.035535 -0.073827 -8.784616 -11.168694 11.490149 -2.426342 -21.119316 -0.873619 -4.624339 -16.349100 -0.511630 -3.610551 -0.001243 -0.000952 0.000998 2.479576 -6.285946 -5.048100 -17.814747 3.308090 1.600474 -4.948094 0.019243 0.447263 -3.029921 0.006045 0.271559 0.001758 0.001529 0.000244 -8.414110 -0.857153 43.863037 6.856752 -1.169961 -2.834506 0.000000 0.000000 0.000000 -0.001429 -0.001347 0.001082 -24.723743 -9.292001 17.429598 -0.000511 -0.003846 30.137405 -0.000000 -0.000000 -0.000000 0.000000 -0.000000 0.000000 0.000000 0.000000 -0.000000 0.000000 0.000000 0.000000 -22.381594 0.303831 20.551126 0.001455 0.000274 0.330988 0.000000 0.000000 -0.000000 0.000000 -0.000000 -0.000000 0.000000 -0.000000 -0.000000 -0.000000 -0.000000 0.000000 
8.348897 -0.427734 -2.037994 12.702231 14.528707 -11.534667 -7.315479 2.738820 12.576453 -0.084424 0.199926 -0.504897 -0.792070 2.311132 1.286216 0.219760 1.003509 7.837166 7.450706 -1.285724 14.336093 -15.016741 3.739162 2.968841 -3.623671 0.770264 -0.519122 -0.003991 0.000686 -0.001873 6.955220 -10.924141 -1.272852 67.079300 -1.722538 32.904423 -179.963654 88.155060 155.472656 3.745139 -20.206081 -0.062959 34.451431 -5.841157 0.001392 36.981575 0.000341 0.000229 22.204514 0.002855 0.000061 0.000334 -0.000139 0.001087 -0.519953 -2.092965 -10.214470 45.219891 -4.797585 -3.660290 48.616589 1.790619 -3.882980 20.893944 0.339227 -1.843868 -0.001473 0.000804 -0.000809 -2.268318 -4.334419 -3.491170 36.117397 4.472399 -7.632670 50.556961 4.828422 -9.938675 32.655304 2.072957 -6.924582 0.000248 -0.000253 -0.001136 -0.737946 7.443167 -3.346879 21.657980 -12.239912 1.993968 27.423496 -0.621315 2.377706 20.546160 -0.338889 1.815477 0.002002 0.000572 -0.000502 8.056319 4.647840 50.074879 3.357766 -3.719233 0.761682 11.654556 -7.823652 2.959922 -0.001771 -0.000122 -0.001103 -8.746407 8.443393 -1.240351 -67.043388 2.023485 0.926400 -0.001888 -36.786739 1.706273 -20.416857 7.590827 0.033084 -25.572512 1.297905 0.000600 -16.743568 0.001086 0.002179 -13.607800 -0.000310 -0.002648 0.001753 0.000014 -0.000417 -1.100566 0.635845 -12.879341 -19.768562 2.067129 -1.745421 -23.022020 -0.414352 -2.024560 -5.171397 -0.022020 -0.466275 -0.000170 -0.001124 -0.000735 0.016219 -0.120297 -8.727193 -11.481083 11.591548 -2.493048 -21.562555 -0.907685 -4.716775 -16.845026 -0.541782 -3.717606 -0.001173 -0.000970 0.001018 2.478704 -6.324633 -5.205595 -18.449286 3.495619 1.656444 -5.642417 0.022285 0.509196 -3.138366 0.005701 0.281231 0.001730 0.001453 0.000189 -8.374343 -0.540304 44.157696 6.936985 -0.970552 -2.905187 0.000000 0.000000 0.000000 -0.001276 -0.001588 0.001002 -24.730282 -9.276660 17.406395 -0.000304 -0.003955 30.077221 -0.000000 -0.000000 -0.000000 0.000000 -0.000000 0.000000 0.000000 0.000000 -0.000000 0.000000 0.000000 0.000000 -22.361546 0.164501 20.571247 0.001257 0.000093 0.289258 0.000000 0.000000 -0.000000 0.000000 -0.000000 -0.000000 0.000000 0.000000 -0.000000 -0.000000 -0.000000 0.000000 
8.492568 -0.440927 -1.846374 12.696737 14.710335 -11.464396 -7.380227 2.752432 12.578470 -0.096468 0.206808 -0.504048 -0.822882 2.350115 1.299780 0.184724 1.005531 7.861390 7.424301 -1.217550 14.349932 -14.920053 3.818144 2.933541 -3.612670 0.773375 -0.512420 -0.003717 0.000563 -0.001999 6.951768 -10.940679 -1.275860 67.156418 -1.825837 32.770275 -179.954346 88.444046 155.161789 3.176402 -20.148819 -0.063099 36.578411 -5.800754 0.002028 40.500023 0.000218 0.000164 23.430298 0.002621 0.000157 0.000406 -0.000339 0.001191 -0.635771 -2.045684 -9.712008 47.870728 -4.304725 -3.823876 52.136135 1.994018 -4.085433 21.947674 0.368863 -1.932402 -0.001701 0.000851 -0.000774 -2.325446 -4.436831 -3.415823 37.957726 5.767383 -7.992755 53.818604 5.327923 -10.389873 34.594131 2.289539 -7.287754 0.000231 -0.000079 -0.001060 -0.601720 7.496130 -3.315906 23.824722 -12.815513 2.181664 30.653177 -0.724674 2.633150 21.974398 -0.377905 1.935977 0.001986 0.000521 -0.000544 8.338343 3.523177 51.550117 4.494641 -4.196952 1.165669 12.779886 -8.585330 3.204509 -0.001571 -0.000009 -0.001072 -8.750793 8.507612 -1.252792 -67.054245 1.942008 0.947747 -0.001624 -36.892529 1.730463 -20.612877 7.524769 0.033276 -26.262980 1.158266 0.000677 -17.833927 0.000912 0.002265 -13.984233 -0.000374 -0.002592 0.001674 0.000138 -0.000598 -1.079842 0.613114 -12.873013 -20.050280 2.028886 -1.768864 -23.653448 -0.433219 -2.076777 -5.460435 -0.023397 -0.492045 0.000105 -0.001438 -0.000687 0.055333 -0.154664 -8.724870 -11.528865 11.703587 -2.503122 -21.900948 -0.933795 -4.787436 -17.292110 -0.569615 -3.813881 -0.000931 -0.000939 0.001100 2.466078 -6.357815 -5.312531 -19.026030 3.654804 1.707178 -6.260144 0.025311 0.564086 -3.239475 0.005594 0.290431 0.001758 0.001293 0.000142 -8.340748 -0.287740 44.320934 7.081724 -0.810331 -3.000592 0.000000 0.000000 0.000000 -0.001042 -0.001764 0.000968 -24.684080 -9.211299 17.396961 -0.000171 -0.004054 30.009657 -0.000000 -0.000000 -0.000000 0.000000 -0.000000 0.000000 0.000000 0.000000 -0.000000 0.000000 0.000000 0.000000 -22.365000 0.092405 20.587168 0.001017 -0.000109 0.262848 0.000000 0.000000 -0.000000 0.000000 -0.000000 -0.000000 0.000000 0.000000 -0.000000 -0.000000 -0.000000 0.000000 
8.595084 -0.438666 -1.552426 12.678499 14.617230 -11.484794 -7.439629 2.771106 12.630467 -0.107789 0.212039 -0.500664 -0.849525 2.378021 1.305854 0.151062 1.006592 7.884121 7.388453 -1.126169 14.401812 -14.849568 3.930576 2.882707 -3.609164 0.779974 -0.513089 -0.003223 0.000529 -0.002139 6.945400 -10.935530 -1.274019 67.264099 -1.739129 32.546066 -179.939209 88.758240 154.742950 2.995187 -19.962914 -0.062416 38.201710 -5.842580 0.002284 43.128716 0.000139 0.000099 24.267054 0.002265 0.000220 0.000320 -0.000694 0.001330 -0.751929 -2.028812 -9.239742 49.908936 -3.926834 -3.944204 54.795475 2.156687 -4.228100 22.664541 0.390722 -1.992257 -0.001962 0.000769 -0.000673 -2.387108 -4.551089 -3.330286 39.423256 6.792830 -8.275355 56.384323 5.728153 -10.721276 36.127575 2.468459 -7.569663 0.000176 0.000001 -0.001006 -0.464803 7.546780 -3.270345 25.608412 -13.316785 2.333950 33.096077 -0.813010 2.821095 23.065107 -0.409955 2.027257 0.001973 0.000419 -0.000519 8.534955 2.688843 52.539848 5.117696 -4.524282 1.365012 13.531431 -9.098507 3.359701 -0.001367 0.000070 -0.000929 -8.765835 8.542174 -1.261946 -67.067070 1.947583 0.727051 -0.001345 -36.926189 1.865573 -20.730322 7.421287 0.033169 -26.659065 1.091350 0.000670 -18.617310 0.000630 0.002140 -14.175221 -0.000340 -0.002511 0.001433 0.000307 -0.000763 -1.056744 0.602170 -12.845963 -20.084007 2.016121 -1.771199 -24.087326 -0.445774 -2.112490 -5.622410 -0.024041 -0.506203 0.000435 -0.001682 -0.000662 0.081367 -0.175427 -8.722318 -11.355654 11.828865 -2.466063 -22.084047 -0.947729 -4.825618 -17.589230 -0.589034 -3.877850 -0.000493 -0.000821 0.001247 2.444690 -6.383819 -5.370210 -19.515427 3.755866 1.750286 -6.760282 0.028453 0.608139 -3.292660 0.005355 0.295532 0.001844 0.001059 0.000045 -8.327694 -0.136370 44.335720 7.309830 -0.736251 -3.122895 0.000000 0.000000 0.000000 -0.000846 -0.001801 0.000972 -24.590736 -9.070372 17.388733 -0.000075 -0.004072 29.914257 -0.000000 -0.000000 -0.000000 0.000000 -0.000000 0.000000 0.000000 0.000000 -0.000000 0.000000 0.000000 0.000000 -22.380322 0.097057 20.606211 0.000699 -0.000365 0.249246 0.000000 0.000000 -0.000000 0.000000 -0.000000 -0.000000 0.000000 0.000000 -0.000000 -0.000000 -0.000000 0.000000 
